<svg t="1754388470637" class="icon" viewBox="0 0 1024 1024" version="1.1" xmlns="http://www.w3.org/2000/svg" p-id="5722" width="32" height="32">
<path d="M884.452 935.538H138.638l21.96 22.3V624.185c0-50.859-6.657-105.13 27.306-147.456 37.262-46.25 89.43-44.26 141.767-44.26h412.843c49.095 0 90.112 30.038 110.649 74.297 9.5 20.48 9.33 42.894 9.33 64.854v386.218c0 28.73 43.918 28.73 43.918 0V624.185c0-51.883 4.096-102.741-20.48-150.471-32.711-63.431-97.792-85.789-163.67-85.789H347.82c-46.763 0-92.047-3.413-136.25 15.531-44.543 19.115-76.629 62.236-89.542 108.544-5.575 20.139-5.348 40.96-5.348 61.668v384.17c0 12.118 10.013 22.3 21.96 22.3h745.813c28.273 0 28.273-44.6 0-44.6z" p-id="5723"></path><path d="M139.378 631.125h744.618c30.152 0 30.152-47.957 0-47.957H139.321c-30.151 0-30.151 47.957 0 47.957z m395.719 325.803V753.266c0-30.948-46.82-30.948-46.82 0v203.662c0 30.89 46.82 30.89 46.82 0z m-189.213 0V753.266c0-30.948-46.82-30.948-46.82 0v203.662c0 30.89 46.82 30.89 46.82 0z m392.932 0V753.266c0-30.948-46.82-30.948-46.82 0v203.662c0 30.89 46.82 30.89 46.82 0zM370.745 373.532V240.754c0-81.351 62.52-134.258 138.809-134.258 38.115 0 71.794 7.396 101.148 34.02 27.534 24.974 41.87 61.553 41.87 98.816v134.2c0 30.891 46.877 30.891 46.877 0 0-49.607 2.503-99.953-0.569-149.447C692.622 123.676 607.346 58.54 513.82 58.54c-43.918 0-84.423 8.647-120.206 36.181a179.541 179.541 0 0 0-68.437 122.766c-5.348 51.257-1.252 104.562-1.252 156.046 0 30.891 46.82 30.891 46.82 0z" p-id="5724"></path>
</svg>