<svg viewBox="0 0 1024 1024" version="1.1" xmlns="http://www.w3.org/2000/svg" width="16" height="16">
<path d="M702.6688 56.56576L56.58624 702.6688l264.78592 264.78592L967.41376 321.3312 702.6688 56.56576zM167.6288 655.38048l65.72032 65.72032 31.90784-31.86688-65.7408-65.7408 44.27776-44.25728 132.83328 132.83328 31.88736-31.88736-132.83328-132.83328 44.25728-44.27776 65.72032 65.7408 31.88736-31.90784-65.72032-65.72032 44.25728-44.25728 132.85376 132.83328 31.88736-31.88736-132.85376-132.83328 44.27776-44.27776 65.69984 65.7408 31.90784-31.86688-65.72032-65.7408 44.2368-44.27776 132.85376 132.85376 31.86688-31.88736-132.83328-132.83328 44.27776-44.27776 65.7408 65.72032 31.88736-31.86688-65.7408-65.7408 46.2848-46.30528 201.0112 201.0112-582.36928 582.41024-201.0112-201.03168 47.28832-47.28832z" fill="currentColor"></path>
</svg>