<svg width="16" height="16" viewBox="0 0 24 24" fill="none" xmlns="http://www.w3.org/2000/svg">
<path d="M4 4V9H4.58152M4.58152 9C5.24618 7.35652 6.43101 5.9604 7.96438 5.02493C9.49775 4.08946 11.2993 3.67482 13.1152 3.84379C14.9311 4.01276 16.6428 4.75751 18.0145 5.98394C19.3861 7.21038 20.3397 8.84777 20.7386 10.6649C21.1375 12.4821 20.9619 14.3747 20.2388 16.0947C19.5157 17.8148 18.2803 19.2849 16.7209 20.2947C15.1615 21.3044 13.3581 21.8032 11.5412 21.7194C9.72427 21.6356 7.97325 20.9727 6.5152 19.8199" stroke="currentColor" stroke-width="2" stroke-linecap="round" stroke-linejoin="round"/>
<path d="M4 9L1 6L4 3" stroke="currentColor" stroke-width="2" stroke-linecap="round" stroke-linejoin="round"/>
</svg>