<svg viewBox="0 0 1024 1024" version="1.1" xmlns="http://www.w3.org/2000/svg" width="16" height="16">
<path d="M525.39847111 95.48231111c229.52163555 0 416.51768889 186.99605333 416.51768889 416.51768889s-186.99605333 416.51768889-416.51768889 416.51768889S108.29824 741.52163555 108.29824 512s186.99605333-416.51768889 417.10023111-416.51768889m0-66.99235556C258.59413333 28.48995555 41.88842667 245.19566222 41.88842667 512c0 266.80433778 216.12316445 483.51004445 483.51004444 483.51004445 266.80433778 0 483.51004445-216.12316445 483.51004444-483.51004445 0-266.80433778-216.70570667-483.51004445-483.51004444-483.51004445z" fill="currentColor"></path>
<path d="M575.49710222 606.37184c-8.73813333 0-16.89372445-3.49525333-23.30168889-9.90321778L375.68512 419.95832889c-12.81592889-12.81592889-12.81592889-34.36999111 0-47.18592 12.81592889-12.81592889 34.36999111-12.81592889 47.18592 0L599.38133333 549.28270222c12.81592889 12.81592889 12.81592889 34.36999111 0 47.18592-6.40796445 6.40796445-15.14609778 9.90321778-23.88423111 9.90321778z" fill="currentColor"></path>
<path d="M525.39847111 640.15928889c-18.64135111 0-33.20490667-15.14609778-33.20490666-33.20490667V278.40056889c0-18.64135111 15.14609778-33.20490667 33.20490666-33.20490667 18.64135111 0 33.20490667 15.14609778 33.20490667 33.20490667v327.97127111c0 18.64135111-15.14609778 33.78744889-33.20490667 33.78744889zM201.50499555 545.20490667h-50.0986311c-18.64135111 0-33.20490667-15.14609778-33.20490667-33.20490667 0-18.64135111 15.14609778-33.20490667 33.20490667-33.20490667h50.0986311c18.64135111 0 33.20490667 15.14609778 33.20490667 33.20490667 0 18.05880889-14.56355555 33.20490667-33.20490667 33.20490667zM899.39057778 545.20490667h-49.51608889c-18.64135111 0-33.20490667-15.14609778-33.20490667-33.20490667 0-18.64135111 15.14609778-33.20490667 33.20490667-33.20490667h50.09863111c18.64135111 0 33.20490667 15.14609778 33.20490667 33.20490667 0 18.05880889-15.14609778 33.20490667-33.78744889 33.20490667zM524.81592889 220.14634667c-18.64135111 0-33.20490667-15.14609778-33.20490667-33.20490667v-50.09863111c0-18.64135111 15.14609778-33.20490667 33.20490667-33.20490667 18.64135111 0 33.20490667 15.14609778 33.20490666 33.20490667v50.09863111c0 18.05880889-15.14609778 33.20490667-33.20490666 33.20490667zM524.81592889 920.36209778c-18.64135111 0-33.20490667-15.14609778-33.20490667-33.20490667v-50.09863111c0-18.64135111 15.14609778-33.20490667 33.20490667-33.20490667 18.64135111 0 33.20490667 15.14609778 33.20490666 33.20490667v50.09863111c0 18.05880889-15.14609778 33.20490667-33.20490666 33.20490667z" fill="currentColor"></path>
</svg>